<?xml version="1.0" encoding="UTF-8" standalone="no"?>
<!DOCTYPE svg PUBLIC "-//W3C//DTD SVG 1.1//EN"
 "http://www.w3.org/Graphics/SVG/1.1/DTD/svg11.dtd">
<!-- Generated by graphviz version 5.0.0 (20220707.1540)
 -->
<!-- Title: dependencies Pages: 1 -->
<svg width="1664pt" height="247pt"
 viewBox="0.00 0.00 1664.00 246.80" xmlns="http://www.w3.org/2000/svg" xmlns:xlink="http://www.w3.org/1999/xlink">
<g id="graph0" class="graph" transform="scale(1 1) rotate(0) translate(4 242.8)">
<title>dependencies</title>
<polygon fill="white" stroke="transparent" points="-4,4 -4,-242.8 1660,-242.8 1660,4 -4,4"/>
<text text-anchor="middle" x="828" y="-8.2" font-family="sans-serif" font-size="14.00">dependencies</text>
<g id="clust1" class="cluster">
<title>cluster_AppModule</title>
<polygon fill="none" stroke="black" stroke-dasharray="1,5" points="8,-32.8 8,-230.8 1648,-230.8 1648,-32.8 8,-32.8"/>
</g>
<g id="clust14" class="cluster">
<title>cluster_AppModule_providers</title>
<polygon fill="none" stroke="black" points="1488,-40.8 1488,-92.8 1640,-92.8 1640,-40.8 1488,-40.8"/>
</g>
<g id="clust11" class="cluster">
<title>cluster_AppModule_imports</title>
<polygon fill="none" stroke="black" points="1336,-40.8 1336,-92.8 1480,-92.8 1480,-40.8 1336,-40.8"/>
</g>
<g id="clust13" class="cluster">
<title>cluster_AppModule_bootstrap</title>
<polygon fill="none" stroke="black" points="824,-170.8 824,-222.8 948,-222.8 948,-170.8 824,-170.8"/>
</g>
<g id="clust2" class="cluster">
<title>cluster_AppModule_declarations</title>
<polygon fill="none" stroke="black" points="16,-40.8 16,-92.8 1328,-92.8 1328,-40.8 16,-40.8"/>
</g>
<!-- AppComponent -->
<g id="node1" class="node">
<title>AppComponent</title>
<polygon fill="#ffffb3" stroke="black" points="1319.94,-84.8 1214.06,-84.8 1214.06,-48.8 1319.94,-48.8 1319.94,-84.8"/>
<text text-anchor="middle" x="1267" y="-62.6" font-family="Times,serif" font-size="14.00">AppComponent</text>
</g>
<!-- AppModule -->
<g id="node9" class="node">
<title>AppModule</title>
<polygon fill="#8dd3c7" stroke="black" points="927.66,-149.8 924.66,-153.8 903.66,-153.8 900.66,-149.8 844.34,-149.8 844.34,-113.8 927.66,-113.8 927.66,-149.8"/>
<text text-anchor="middle" x="886" y="-127.6" font-family="Times,serif" font-size="14.00">AppModule</text>
</g>
<!-- AppComponent&#45;&gt;AppModule -->
<g id="edge1" class="edge">
<title>AppComponent&#45;&gt;AppModule</title>
<path fill="none" stroke="black" d="M1267,-85.07C1267,-103.36 1267,-128.8 1267,-128.8 1267,-128.8 937.86,-128.8 937.86,-128.8"/>
<polygon fill="black" stroke="black" points="937.86,-125.3 927.86,-128.8 937.86,-132.3 937.86,-125.3"/>
</g>
<!-- CartDetailsComponent -->
<g id="node2" class="node">
<title>CartDetailsComponent</title>
<polygon fill="#ffffb3" stroke="black" points="1196.59,-84.8 1051.41,-84.8 1051.41,-48.8 1196.59,-48.8 1196.59,-84.8"/>
<text text-anchor="middle" x="1124" y="-62.6" font-family="Times,serif" font-size="14.00">CartDetailsComponent</text>
</g>
<!-- CartDetailsComponent&#45;&gt;AppModule -->
<g id="edge2" class="edge">
<title>CartDetailsComponent&#45;&gt;AppModule</title>
<path fill="none" stroke="black" d="M1124,-84.81C1124,-100.85 1124,-121.8 1124,-121.8 1124,-121.8 937.73,-121.8 937.73,-121.8"/>
<polygon fill="black" stroke="black" points="937.73,-118.3 927.73,-121.8 937.73,-125.3 937.73,-118.3"/>
</g>
<!-- CartStatusComponent -->
<g id="node3" class="node">
<title>CartStatusComponent</title>
<polygon fill="#ffffb3" stroke="black" points="1033.66,-84.8 894.34,-84.8 894.34,-48.8 1033.66,-48.8 1033.66,-84.8"/>
<text text-anchor="middle" x="964" y="-62.6" font-family="Times,serif" font-size="14.00">CartStatusComponent</text>
</g>
<!-- CartStatusComponent&#45;&gt;AppModule -->
<g id="edge3" class="edge">
<title>CartStatusComponent&#45;&gt;AppModule</title>
<path fill="none" stroke="black" d="M911,-84.91C911,-84.91 911,-103.79 911,-103.79"/>
<polygon fill="black" stroke="black" points="907.5,-103.79 911,-113.79 914.5,-103.79 907.5,-103.79"/>
</g>
<!-- CheckoutComponent -->
<g id="node4" class="node">
<title>CheckoutComponent</title>
<polygon fill="#ffffb3" stroke="black" points="876.49,-84.8 741.51,-84.8 741.51,-48.8 876.49,-48.8 876.49,-84.8"/>
<text text-anchor="middle" x="809" y="-62.6" font-family="Times,serif" font-size="14.00">CheckoutComponent</text>
</g>
<!-- CheckoutComponent&#45;&gt;AppModule -->
<g id="edge4" class="edge">
<title>CheckoutComponent&#45;&gt;AppModule</title>
<path fill="none" stroke="black" d="M860.33,-84.91C860.33,-84.91 860.33,-103.79 860.33,-103.79"/>
<polygon fill="black" stroke="black" points="856.83,-103.79 860.33,-113.79 863.83,-103.79 856.83,-103.79"/>
</g>
<!-- ProductCategoryMenuComponent -->
<g id="node5" class="node">
<title>ProductCategoryMenuComponent</title>
<polygon fill="#ffffb3" stroke="black" points="723.36,-84.8 514.64,-84.8 514.64,-48.8 723.36,-48.8 723.36,-84.8"/>
<text text-anchor="middle" x="619" y="-62.6" font-family="Times,serif" font-size="14.00">ProductCategoryMenuComponent</text>
</g>
<!-- ProductCategoryMenuComponent&#45;&gt;AppModule -->
<g id="edge5" class="edge">
<title>ProductCategoryMenuComponent&#45;&gt;AppModule</title>
<path fill="none" stroke="black" d="M619,-84.81C619,-100.85 619,-121.8 619,-121.8 619,-121.8 834.28,-121.8 834.28,-121.8"/>
<polygon fill="black" stroke="black" points="834.28,-125.3 844.28,-121.8 834.28,-118.3 834.28,-125.3"/>
</g>
<!-- ProductListComponent -->
<g id="node6" class="node">
<title>ProductListComponent</title>
<polygon fill="#ffffb3" stroke="black" points="496.16,-84.8 349.84,-84.8 349.84,-48.8 496.16,-48.8 496.16,-84.8"/>
<text text-anchor="middle" x="423" y="-62.6" font-family="Times,serif" font-size="14.00">ProductListComponent</text>
</g>
<!-- ProductListComponent&#45;&gt;AppModule -->
<g id="edge6" class="edge">
<title>ProductListComponent&#45;&gt;AppModule</title>
<path fill="none" stroke="black" d="M423,-85.07C423,-103.36 423,-128.8 423,-128.8 423,-128.8 834.1,-128.8 834.1,-128.8"/>
<polygon fill="black" stroke="black" points="834.1,-132.3 844.1,-128.8 834.1,-125.3 834.1,-132.3"/>
</g>
<!-- ProductsDetailsComponent -->
<g id="node7" class="node">
<title>ProductsDetailsComponent</title>
<polygon fill="#ffffb3" stroke="black" points="331.99,-84.8 162.01,-84.8 162.01,-48.8 331.99,-48.8 331.99,-84.8"/>
<text text-anchor="middle" x="247" y="-62.6" font-family="Times,serif" font-size="14.00">ProductsDetailsComponent</text>
</g>
<!-- ProductsDetailsComponent&#45;&gt;AppModule -->
<g id="edge7" class="edge">
<title>ProductsDetailsComponent&#45;&gt;AppModule</title>
<path fill="none" stroke="black" d="M247,-84.93C247,-105.37 247,-135.8 247,-135.8 247,-135.8 834.07,-135.8 834.07,-135.8"/>
<polygon fill="black" stroke="black" points="834.07,-139.3 844.07,-135.8 834.07,-132.3 834.07,-139.3"/>
</g>
<!-- SearchComponent -->
<g id="node8" class="node">
<title>SearchComponent</title>
<polygon fill="#ffffb3" stroke="black" points="143.92,-84.8 24.08,-84.8 24.08,-48.8 143.92,-48.8 143.92,-84.8"/>
<text text-anchor="middle" x="84" y="-62.6" font-family="Times,serif" font-size="14.00">SearchComponent</text>
</g>
<!-- SearchComponent&#45;&gt;AppModule -->
<g id="edge8" class="edge">
<title>SearchComponent&#45;&gt;AppModule</title>
<path fill="none" stroke="black" d="M84,-84.81C84,-107.29 84,-142.8 84,-142.8 84,-142.8 834.29,-142.8 834.29,-142.8"/>
<polygon fill="black" stroke="black" points="834.29,-146.3 844.29,-142.8 834.29,-139.3 834.29,-146.3"/>
</g>
<!-- AppComponent  -->
<g id="node11" class="node">
<title>AppComponent </title>
<polygon fill="#80b1d3" stroke="black" points="940.44,-214.8 831.56,-214.8 831.56,-178.8 940.44,-178.8 940.44,-214.8"/>
<text text-anchor="middle" x="886" y="-192.6" font-family="Times,serif" font-size="14.00">AppComponent </text>
</g>
<!-- AppModule&#45;&gt;AppComponent  -->
<g id="edge10" class="edge">
<title>AppModule&#45;&gt;AppComponent </title>
<path fill="none" stroke="black" stroke-dasharray="1,5" d="M886,-149.91C886,-149.91 886,-168.79 886,-168.79"/>
<polygon fill="black" stroke="black" points="882.5,-168.79 886,-178.79 889.5,-168.79 882.5,-168.79"/>
</g>
<!-- AppRoutingModule -->
<g id="node10" class="node">
<title>AppRoutingModule</title>
<polygon fill="#8dd3c7" stroke="black" points="1472.28,-84.8 1469.28,-88.8 1448.28,-88.8 1445.28,-84.8 1343.72,-84.8 1343.72,-48.8 1472.28,-48.8 1472.28,-84.8"/>
<text text-anchor="middle" x="1408" y="-62.6" font-family="Times,serif" font-size="14.00">AppRoutingModule</text>
</g>
<!-- AppRoutingModule&#45;&gt;AppModule -->
<g id="edge9" class="edge">
<title>AppRoutingModule&#45;&gt;AppModule</title>
<path fill="none" stroke="black" d="M1408,-84.93C1408,-105.37 1408,-135.8 1408,-135.8 1408,-135.8 937.84,-135.8 937.84,-135.8"/>
<polygon fill="black" stroke="black" points="937.84,-132.3 927.84,-135.8 937.84,-139.3 937.84,-132.3"/>
</g>
<!-- ProduitService -->
<g id="node12" class="node">
<title>ProduitService</title>
<ellipse fill="#fdb462" stroke="black" cx="1564" cy="-66.8" rx="68.36" ry="18"/>
<text text-anchor="middle" x="1564" y="-62.6" font-family="Times,serif" font-size="14.00">ProduitService</text>
</g>
<!-- ProduitService&#45;&gt;AppModule -->
<g id="edge11" class="edge">
<title>ProduitService&#45;&gt;AppModule</title>
<path fill="none" stroke="black" d="M1564,-84.81C1564,-107.29 1564,-142.8 1564,-142.8 1564,-142.8 937.9,-142.8 937.9,-142.8"/>
<polygon fill="black" stroke="black" points="937.9,-139.3 927.9,-142.8 937.9,-146.3 937.9,-139.3"/>
</g>
</g>
</svg>
