<?xml version="1.0" encoding="UTF-8" standalone="no"?>
<!DOCTYPE svg PUBLIC "-//W3C//DTD SVG 1.1//EN"
 "http://www.w3.org/Graphics/SVG/1.1/DTD/svg11.dtd">
<!-- Generated by graphviz version 5.0.0 (20220707.1540)
 -->
<!-- Title: dependencies Pages: 1 -->
<svg width="1664pt" height="247pt"
 viewBox="0.00 0.00 1664.00 246.80" xmlns="http://www.w3.org/2000/svg" xmlns:xlink="http://www.w3.org/1999/xlink">
<g id="graph0" class="graph" transform="scale(1 1) rotate(0) translate(4 242.8)">
<title>dependencies</title>
<polygon fill="white" stroke="transparent" points="-4,4 -4,-242.8 1660,-242.8 1660,4 -4,4"/>
<text text-anchor="middle" x="828" y="-8.2" font-family="sans-serif" font-size="14.00">dependencies</text>
<g id="clust1" class="cluster">
<title>cluster_AppModule</title>
<polygon fill="none" stroke="black" stroke-dasharray="1,5" points="8,-32.8 8,-230.8 1648,-230.8 1648,-32.8 8,-32.8"/>
</g>
<g id="clust2" class="cluster">
<title>cluster_AppModule_declarations</title>
<polygon fill="none" stroke="black" points="328,-40.8 328,-92.8 1640,-92.8 1640,-40.8 328,-40.8"/>
</g>
<g id="clust11" class="cluster">
<title>cluster_AppModule_imports</title>
<polygon fill="none" stroke="black" points="176,-40.8 176,-92.8 320,-92.8 320,-40.8 176,-40.8"/>
</g>
<g id="clust13" class="cluster">
<title>cluster_AppModule_bootstrap</title>
<polygon fill="none" stroke="black" points="771,-170.8 771,-222.8 895,-222.8 895,-170.8 771,-170.8"/>
</g>
<g id="clust14" class="cluster">
<title>cluster_AppModule_providers</title>
<polygon fill="none" stroke="black" points="16,-40.8 16,-92.8 168,-92.8 168,-40.8 16,-40.8"/>
</g>
<!-- AppComponent -->
<g id="node1" class="node">
<title>AppComponent</title>
<polygon fill="#ffffb3" stroke="black" points="1631.94,-84.8 1526.06,-84.8 1526.06,-48.8 1631.94,-48.8 1631.94,-84.8"/>
<text text-anchor="middle" x="1579" y="-62.6" font-family="Times,serif" font-size="14.00">AppComponent</text>
</g>
<!-- AppModule -->
<g id="node9" class="node">
<title>AppModule</title>
<polygon fill="#8dd3c7" stroke="black" points="874.66,-149.8 871.66,-153.8 850.66,-153.8 847.66,-149.8 791.34,-149.8 791.34,-113.8 874.66,-113.8 874.66,-149.8"/>
<text text-anchor="middle" x="833" y="-127.6" font-family="Times,serif" font-size="14.00">AppModule</text>
</g>
<!-- AppComponent&#45;&gt;AppModule -->
<g id="edge1" class="edge">
<title>AppComponent&#45;&gt;AppModule</title>
<path fill="none" stroke="black" d="M1579,-84.81C1579,-107.29 1579,-142.8 1579,-142.8 1579,-142.8 884.71,-142.8 884.71,-142.8"/>
<polygon fill="black" stroke="black" points="884.71,-139.3 874.71,-142.8 884.71,-146.3 884.71,-139.3"/>
</g>
<!-- CartDetailsComponent -->
<g id="node2" class="node">
<title>CartDetailsComponent</title>
<polygon fill="#ffffb3" stroke="black" points="1508.59,-84.8 1363.41,-84.8 1363.41,-48.8 1508.59,-48.8 1508.59,-84.8"/>
<text text-anchor="middle" x="1436" y="-62.6" font-family="Times,serif" font-size="14.00">CartDetailsComponent</text>
</g>
<!-- CartDetailsComponent&#45;&gt;AppModule -->
<g id="edge2" class="edge">
<title>CartDetailsComponent&#45;&gt;AppModule</title>
<path fill="none" stroke="black" d="M1436,-84.93C1436,-105.37 1436,-135.8 1436,-135.8 1436,-135.8 884.92,-135.8 884.92,-135.8"/>
<polygon fill="black" stroke="black" points="884.92,-132.3 874.92,-135.8 884.92,-139.3 884.92,-132.3"/>
</g>
<!-- CartStatusComponent -->
<g id="node3" class="node">
<title>CartStatusComponent</title>
<polygon fill="#ffffb3" stroke="black" points="1345.66,-84.8 1206.34,-84.8 1206.34,-48.8 1345.66,-48.8 1345.66,-84.8"/>
<text text-anchor="middle" x="1276" y="-62.6" font-family="Times,serif" font-size="14.00">CartStatusComponent</text>
</g>
<!-- CartStatusComponent&#45;&gt;AppModule -->
<g id="edge3" class="edge">
<title>CartStatusComponent&#45;&gt;AppModule</title>
<path fill="none" stroke="black" d="M1276,-85.07C1276,-103.36 1276,-128.8 1276,-128.8 1276,-128.8 884.68,-128.8 884.68,-128.8"/>
<polygon fill="black" stroke="black" points="884.68,-125.3 874.68,-128.8 884.68,-132.3 884.68,-125.3"/>
</g>
<!-- CheckoutComponent -->
<g id="node4" class="node">
<title>CheckoutComponent</title>
<polygon fill="#ffffb3" stroke="black" points="1188.49,-84.8 1053.51,-84.8 1053.51,-48.8 1188.49,-48.8 1188.49,-84.8"/>
<text text-anchor="middle" x="1121" y="-62.6" font-family="Times,serif" font-size="14.00">CheckoutComponent</text>
</g>
<!-- CheckoutComponent&#45;&gt;AppModule -->
<g id="edge4" class="edge">
<title>CheckoutComponent&#45;&gt;AppModule</title>
<path fill="none" stroke="black" d="M1121,-84.81C1121,-100.85 1121,-121.8 1121,-121.8 1121,-121.8 884.88,-121.8 884.88,-121.8"/>
<polygon fill="black" stroke="black" points="884.88,-118.3 874.88,-121.8 884.88,-125.3 884.88,-118.3"/>
</g>
<!-- ProductCategoryMenuComponent -->
<g id="node5" class="node">
<title>ProductCategoryMenuComponent</title>
<polygon fill="#ffffb3" stroke="black" points="1035.36,-84.8 826.64,-84.8 826.64,-48.8 1035.36,-48.8 1035.36,-84.8"/>
<text text-anchor="middle" x="931" y="-62.6" font-family="Times,serif" font-size="14.00">ProductCategoryMenuComponent</text>
</g>
<!-- ProductCategoryMenuComponent&#45;&gt;AppModule -->
<g id="edge5" class="edge">
<title>ProductCategoryMenuComponent&#45;&gt;AppModule</title>
<path fill="none" stroke="black" d="M850.7,-84.91C850.7,-84.91 850.7,-103.79 850.7,-103.79"/>
<polygon fill="black" stroke="black" points="847.2,-103.79 850.7,-113.79 854.2,-103.79 847.2,-103.79"/>
</g>
<!-- ProductListComponent -->
<g id="node6" class="node">
<title>ProductListComponent</title>
<polygon fill="#ffffb3" stroke="black" points="808.16,-84.8 661.84,-84.8 661.84,-48.8 808.16,-48.8 808.16,-84.8"/>
<text text-anchor="middle" x="735" y="-62.6" font-family="Times,serif" font-size="14.00">ProductListComponent</text>
</g>
<!-- ProductListComponent&#45;&gt;AppModule -->
<g id="edge6" class="edge">
<title>ProductListComponent&#45;&gt;AppModule</title>
<path fill="none" stroke="black" d="M799.75,-84.91C799.75,-84.91 799.75,-103.79 799.75,-103.79"/>
<polygon fill="black" stroke="black" points="796.25,-103.79 799.75,-113.79 803.25,-103.79 796.25,-103.79"/>
</g>
<!-- ProductsDetailsComponent -->
<g id="node7" class="node">
<title>ProductsDetailsComponent</title>
<polygon fill="#ffffb3" stroke="black" points="643.99,-84.8 474.01,-84.8 474.01,-48.8 643.99,-48.8 643.99,-84.8"/>
<text text-anchor="middle" x="559" y="-62.6" font-family="Times,serif" font-size="14.00">ProductsDetailsComponent</text>
</g>
<!-- ProductsDetailsComponent&#45;&gt;AppModule -->
<g id="edge7" class="edge">
<title>ProductsDetailsComponent&#45;&gt;AppModule</title>
<path fill="none" stroke="black" d="M559,-84.81C559,-100.85 559,-121.8 559,-121.8 559,-121.8 781.09,-121.8 781.09,-121.8"/>
<polygon fill="black" stroke="black" points="781.09,-125.3 791.09,-121.8 781.09,-118.3 781.09,-125.3"/>
</g>
<!-- SearchComponent -->
<g id="node8" class="node">
<title>SearchComponent</title>
<polygon fill="#ffffb3" stroke="black" points="455.92,-84.8 336.08,-84.8 336.08,-48.8 455.92,-48.8 455.92,-84.8"/>
<text text-anchor="middle" x="396" y="-62.6" font-family="Times,serif" font-size="14.00">SearchComponent</text>
</g>
<!-- SearchComponent&#45;&gt;AppModule -->
<g id="edge8" class="edge">
<title>SearchComponent&#45;&gt;AppModule</title>
<path fill="none" stroke="black" d="M396,-85.07C396,-103.36 396,-128.8 396,-128.8 396,-128.8 781.1,-128.8 781.1,-128.8"/>
<polygon fill="black" stroke="black" points="781.1,-132.3 791.1,-128.8 781.1,-125.3 781.1,-132.3"/>
</g>
<!-- AppComponent  -->
<g id="node11" class="node">
<title>AppComponent </title>
<polygon fill="#80b1d3" stroke="black" points="887.44,-214.8 778.56,-214.8 778.56,-178.8 887.44,-178.8 887.44,-214.8"/>
<text text-anchor="middle" x="833" y="-192.6" font-family="Times,serif" font-size="14.00">AppComponent </text>
</g>
<!-- AppModule&#45;&gt;AppComponent  -->
<g id="edge10" class="edge">
<title>AppModule&#45;&gt;AppComponent </title>
<path fill="none" stroke="black" stroke-dasharray="1,5" d="M833,-149.91C833,-149.91 833,-168.79 833,-168.79"/>
<polygon fill="black" stroke="black" points="829.5,-168.79 833,-178.79 836.5,-168.79 829.5,-168.79"/>
</g>
<!-- AppRoutingModule -->
<g id="node10" class="node">
<title>AppRoutingModule</title>
<polygon fill="#8dd3c7" stroke="black" points="312.28,-84.8 309.28,-88.8 288.28,-88.8 285.28,-84.8 183.72,-84.8 183.72,-48.8 312.28,-48.8 312.28,-84.8"/>
<text text-anchor="middle" x="248" y="-62.6" font-family="Times,serif" font-size="14.00">AppRoutingModule</text>
</g>
<!-- AppRoutingModule&#45;&gt;AppModule -->
<g id="edge9" class="edge">
<title>AppRoutingModule&#45;&gt;AppModule</title>
<path fill="none" stroke="black" d="M248,-84.93C248,-105.37 248,-135.8 248,-135.8 248,-135.8 780.93,-135.8 780.93,-135.8"/>
<polygon fill="black" stroke="black" points="780.93,-139.3 790.93,-135.8 780.93,-132.3 780.93,-139.3"/>
</g>
<!-- ProduitService -->
<g id="node12" class="node">
<title>ProduitService</title>
<ellipse fill="#fdb462" stroke="black" cx="92" cy="-66.8" rx="68.36" ry="18"/>
<text text-anchor="middle" x="92" y="-62.6" font-family="Times,serif" font-size="14.00">ProduitService</text>
</g>
<!-- ProduitService&#45;&gt;AppModule -->
<g id="edge11" class="edge">
<title>ProduitService&#45;&gt;AppModule</title>
<path fill="none" stroke="black" d="M92,-84.81C92,-107.29 92,-142.8 92,-142.8 92,-142.8 781.31,-142.8 781.31,-142.8"/>
<polygon fill="black" stroke="black" points="781.31,-146.3 791.31,-142.8 781.31,-139.3 781.31,-146.3"/>
</g>
</g>
</svg>
